<svg xmlns="http://www.w3.org/2000/svg" width="26.847" height="31.833" viewBox="0 0 26.847 31.833">
  <path id="Apple_logo_black" d="M22.522,31.551c-1.727,1.676-3.632,1.414-5.447.624a6.9,6.9,0,0,0-5.734,0c-2.539,1.1-3.887.777-5.416-.624C-2.708,22.663-1.434,9.123,8.378,8.614c2.38.127,4.046,1.316,5.447,1.414C15.909,9.6,17.9,8.391,20.133,8.55a7.683,7.683,0,0,1,6.021,3.176,7,7,0,0,0,.857,12.615,17.907,17.907,0,0,1-4.492,7.231ZM13.634,8.518A7.253,7.253,0,0,1,20.26,1C20.767,5.556,16.119,8.964,13.634,8.518Z" transform="translate(-0.164 -1)" fill="#fff"/>
</svg>
