<svg xmlns="http://www.w3.org/2000/svg" width="17.667" height="27.384" viewBox="0 0 17.667 27.384">
  <path id="bitcoin" d="M92.959,13.25a6.153,6.153,0,0,0-3.43-10.511V0H86V2.65H82.462V0H78.929V2.65H77.162V6.183h1.767V20.317H77.162V23.85h1.767v3.533h3.533V23.85H86v3.533h3.533V23.761a6.153,6.153,0,0,0,3.43-10.511ZM91.3,8.833a2.653,2.653,0,0,1-2.65,2.65H82.462v-5.3h6.183A2.653,2.653,0,0,1,91.3,8.833Zm-2.65,11.483H82.462v-5.3h6.183a2.65,2.65,0,0,1,0,5.3Z" transform="translate(-77.162)" fill="#ffc8ff"/>
</svg>
