<svg width="173" height="173" viewBox="0 0 173 173" fill="none" xmlns="http://www.w3.org/2000/svg">
<path d="M0 32.8363L0 139.164C0 157.299 14.7013 172 32.8363 172H139.164C157.299 172 172 157.299 172 139.164V32.8363C172 14.7013 157.299 0 139.164 0H32.8363C14.7013 0 0 14.7013 0 32.8363Z" fill="url(#paint0_linear_5_25)"/>
<path d="M1.64182 32.8363L1.64182 139.164C1.64182 156.392 15.6081 170.358 32.8363 170.358H139.164C156.392 170.358 170.358 156.392 170.358 139.164V32.8363C170.358 15.6081 156.392 1.64182 139.164 1.64182H32.8363C15.6081 1.64182 1.64182 15.6081 1.64182 32.8363Z" stroke="white" stroke-opacity="0.25"/>
<path d="M47.5733 36.5565L94.1352 82.7802L106.902 70.0134L50.4629 37.4299C49.5868 36.9043 48.5939 36.6041 47.5733 36.5565V36.5565ZM43.6625 38.7073C43.2198 39.5113 42.9935 40.4164 43.0058 41.3342V131.155C43.004 131.825 43.1415 132.488 43.4097 133.102L91.0453 85.811L43.6625 38.7073ZM110.783 72.2332L97.1595 85.811L110.8 99.3166L127.461 89.7776C128.248 89.469 128.925 88.9319 129.404 88.2354C129.884 87.5388 130.144 86.7148 130.151 85.8693C130.158 85.0238 129.912 84.1955 129.444 83.4911C128.976 82.7866 128.308 82.2383 127.526 81.9166C126.108 81.1449 115.574 75.0045 110.796 72.2332H110.783ZM94.1221 88.8286L47.1727 135.394C48.0204 135.372 48.8503 135.147 49.5927 134.737L88.6286 112.162L106.971 101.615L94.1221 88.8286Z" fill="white"/>
<defs>
<linearGradient id="paint0_linear_5_25" x1="-20.812" y1="167.012" x2="146.888" y2="16.168" gradientUnits="userSpaceOnUse">
<stop stop-color="white" stop-opacity="0.384"/>
<stop offset="1" stop-color="white" stop-opacity="0"/>
</linearGradient>
</defs>
</svg>
