<svg width="173" height="173" viewBox="0 0 173 173" fill="none" xmlns="http://www.w3.org/2000/svg">
<path d="M0 32.8363L0 139.164C0 157.299 14.7013 172 32.8363 172H139.164C157.299 172 172 157.299 172 139.164V32.8363C172 14.7013 157.299 0 139.164 0H32.8363C14.7013 0 0 14.7013 0 32.8363Z" fill="url(#paint0_linear_5_53)"/>
<path d="M1.64185 32.8363L1.64185 139.164C1.64185 156.392 15.6081 170.358 32.8364 170.358H139.164C156.392 170.358 170.358 156.392 170.358 139.164V32.8363C170.358 15.6081 156.392 1.64182 139.164 1.64182H32.8364C15.6081 1.64182 1.64185 15.6081 1.64185 32.8363Z" stroke="white" stroke-opacity="0.25"/>
<path d="M67.239 32.3373C66.9544 32.3693 66.68 32.4622 66.4345 32.6098C65.966 32.9425 65.6469 33.446 65.5462 34.0117C65.4454 34.5775 65.5711 35.1601 65.896 35.6341L70.5325 42.556C67.0299 44.3056 63.9449 46.7886 61.487 49.8363C59.0292 52.8839 57.256 56.4249 56.2881 60.2186H115.682C114.715 56.4234 112.942 52.881 110.483 49.8321C108.025 46.7832 104.939 44.2994 101.435 42.5494L106.071 35.6275C106.394 35.1544 106.519 34.5736 106.419 34.0095C106.319 33.4453 106.002 32.9429 105.536 32.6098C105.053 32.2948 104.466 32.1817 103.901 32.2946C103.335 32.4076 102.837 32.7377 102.512 33.214L97.409 40.7336C90.0314 38.0458 81.9424 38.0458 74.5648 40.7336L69.4587 33.2107C69.2156 32.863 68.8754 32.5947 68.4806 32.4393C68.0857 32.284 67.6539 32.2485 67.239 32.3373V32.3373ZM74.1609 49.4713C74.7987 49.4713 75.4221 49.6604 75.9523 50.0147C76.4826 50.369 76.8959 50.8726 77.14 51.4619C77.384 52.0511 77.4479 52.6994 77.3235 53.3249C77.199 53.9504 76.8919 54.525 76.441 54.9759C75.99 55.4269 75.4155 55.734 74.79 55.8584C74.1645 55.9828 73.5161 55.919 72.9269 55.6749C72.3377 55.4308 71.8341 55.0176 71.4798 54.4873C71.1255 53.957 70.9364 53.3336 70.9364 52.6958C70.9359 52.2721 71.019 51.8524 71.1809 51.4608C71.3427 51.0692 71.5802 50.7134 71.8797 50.4136C72.1791 50.1138 72.5347 49.876 72.9262 49.7138C73.3176 49.5515 73.7372 49.468 74.1609 49.468V49.4713ZM97.8031 49.4713C98.4408 49.4713 99.0642 49.6604 99.5945 50.0147C100.125 50.369 100.538 50.8726 100.782 51.4619C101.026 52.0511 101.09 52.6994 100.966 53.3249C100.841 53.9504 100.534 54.525 100.083 54.9759C99.6322 55.4269 99.0576 55.734 98.4321 55.8584C97.8066 55.9828 97.1583 55.919 96.5691 55.6749C95.9799 55.4308 95.4763 55.0176 95.122 54.4873C94.7676 53.957 94.5785 53.3336 94.5785 52.6958C94.5777 52.2703 94.6611 51.8488 94.824 51.4558C94.9869 51.0627 95.2261 50.7058 95.5278 50.4056C95.8294 50.1055 96.1876 49.8681 96.5815 49.7072C96.9754 49.5463 97.3973 49.465 97.8228 49.468L97.8031 49.4713ZM49.4351 64.5202C47.725 64.5211 46.0852 65.2008 44.8759 66.41C43.6667 67.6193 42.987 69.2591 42.9861 70.9692V101.07C42.987 102.78 43.6667 104.42 44.8759 105.63C46.0852 106.839 47.725 107.518 49.4351 107.519C50.1701 107.511 50.898 107.374 51.5859 107.115V64.9208C50.8978 64.6629 50.1699 64.5274 49.4351 64.5202V64.5202ZM55.8842 64.5202V111.805C55.8877 113.514 56.5682 115.152 57.7769 116.361C58.9856 117.57 60.6239 118.25 62.3333 118.254H109.644C111.353 118.25 112.991 117.57 114.2 116.361C115.409 115.152 116.089 113.514 116.093 111.805V64.5202H55.8842ZM122.542 64.5202C121.807 64.5284 121.079 64.6651 120.391 64.9241V107.115C121.361 107.478 122.405 107.599 123.432 107.467C124.459 107.335 125.439 106.955 126.286 106.359C127.133 105.763 127.822 104.97 128.293 104.048C128.765 103.126 129.004 102.103 128.991 101.067V70.9692C128.991 70.1219 128.823 69.283 128.499 68.5003C128.174 67.7176 127.698 67.0066 127.099 66.4077C126.499 65.8089 125.788 65.334 125.005 65.0101C124.222 64.6862 123.383 64.5198 122.535 64.5202H122.542ZM64.4873 122.581V131.181C64.4873 133.462 65.3934 135.649 67.0061 137.262C68.6189 138.875 70.8063 139.781 73.0871 139.781C75.368 139.781 77.5554 138.875 79.1682 137.262C80.7809 135.649 81.687 133.462 81.687 131.181V122.581H64.4873ZM90.2868 122.581V131.181C90.2868 133.462 91.1929 135.649 92.8057 137.262C94.4184 138.875 96.6058 139.781 98.8867 139.781C101.167 139.781 103.355 138.875 104.968 137.262C106.58 135.649 107.486 133.462 107.486 131.181V122.581H90.2868Z" fill="white"/>
<defs>
<linearGradient id="paint0_linear_5_53" x1="-20.812" y1="167.012" x2="146.888" y2="16.168" gradientUnits="userSpaceOnUse">
<stop stop-color="white" stop-opacity="0.384"/>
<stop offset="1" stop-color="white" stop-opacity="0"/>
</linearGradient>
</defs>
</svg>
