<svg width="173" height="173" viewBox="0 0 173 173" fill="none" xmlns="http://www.w3.org/2000/svg">
<path d="M0 32.8363L0 139.164C0 157.299 14.7013 172 32.8363 172H139.164C157.299 172 172 157.299 172 139.164V32.8363C172 14.7013 157.299 0 139.164 0H32.8363C14.7013 0 0 14.7013 0 32.8363Z" fill="url(#paint0_linear_5_39)"/>
<path d="M1.64182 32.8363L1.64182 139.164C1.64182 156.392 15.6081 170.358 32.8363 170.358H139.164C156.392 170.358 170.358 156.392 170.358 139.164V32.8363C170.358 15.6081 156.392 1.64182 139.164 1.64182H32.8363C15.6081 1.64182 1.64182 15.6081 1.64182 32.8363Z" stroke="white" stroke-opacity="0.25"/>
<path d="M89.942 70.4602V69.7247L87.6435 69.8823C87.1282 69.8838 86.623 70.0257 86.1823 70.2927C86.0308 70.4051 85.9078 70.5514 85.823 70.7199C85.7382 70.8884 85.6941 71.0744 85.6941 71.263C85.6941 71.4516 85.7382 71.6376 85.823 71.8061C85.9078 71.9746 86.0308 72.1209 86.1823 72.2333C86.569 72.4935 87.0305 72.6193 87.4957 72.5913C87.8307 72.596 88.164 72.5426 88.4808 72.4336C88.7668 72.3361 89.0318 72.1857 89.2623 71.9904C89.4779 71.8105 89.6526 71.5865 89.7746 71.3336C89.8962 71.0591 89.9535 70.7603 89.942 70.4602V70.4602ZM85.4467 40.8582C79.5763 40.8154 73.756 41.9401 68.3241 44.1669C62.8923 46.3936 57.9573 49.6781 53.8062 53.8292C49.6551 57.9803 46.3707 62.9153 44.1439 68.3471C41.9171 73.7789 40.7925 79.5993 40.8353 85.4697C40.792 91.3402 41.9164 97.1607 44.143 102.593C46.3696 108.025 49.6541 112.96 53.8053 117.111C57.9565 121.262 62.8916 124.547 68.3236 126.773C73.7557 129 79.5762 130.124 85.4467 130.081C91.3172 130.124 97.1378 129 102.57 126.773C108.002 124.547 112.937 121.262 117.088 117.111C121.239 112.96 124.524 108.025 126.75 102.593C128.977 97.1607 130.101 91.3402 130.058 85.4697C130.101 79.5992 128.977 73.7786 126.75 68.3466C124.524 62.9145 121.239 57.9794 117.088 53.8282C112.937 49.677 108.002 46.3926 102.57 44.166C97.1378 41.9394 91.3172 40.815 85.4467 40.8582V40.8582ZM94.109 67.2915C94.3017 66.7299 94.6054 66.2129 95.0021 65.7712C95.387 65.3446 95.8612 65.0082 96.3911 64.7861C97.4915 64.3569 98.7083 64.3313 99.8258 64.7138C100.28 64.8761 100.701 65.1211 101.067 65.4362C101.409 65.7324 101.689 66.0927 101.891 66.4968C102.092 66.897 102.216 67.3315 102.256 67.7775H100.466C100.423 67.535 100.341 67.301 100.223 67.0846C100.108 66.8722 99.9529 66.6838 99.7666 66.5297C99.5711 66.3694 99.3487 66.2449 99.1099 66.1619C98.8295 66.0684 98.5353 66.0229 98.2398 66.0273C97.8873 66.0206 97.5382 66.0968 97.2205 66.2496C96.9029 66.4025 96.6255 66.6277 96.4108 66.9073C96.1789 67.2129 96.0062 67.5593 95.9018 67.9285C95.7748 68.3624 95.7128 68.8128 95.7179 69.2649C95.7115 69.7258 95.7735 70.185 95.9018 70.6276C96.0059 70.9972 96.181 71.343 96.4173 71.6456C96.6314 71.9172 96.9057 72.1353 97.2185 72.2826C97.5416 72.4315 97.8939 72.5067 98.2496 72.5026C98.7827 72.5255 99.3086 72.3733 99.7469 72.0692C100.148 71.7573 100.416 71.3059 100.499 70.805H102.292C102.246 71.2752 102.108 71.7317 101.885 72.148C101.671 72.5449 101.382 72.8963 101.034 73.1823C100.667 73.4757 100.248 73.6984 99.7995 73.839C99.2952 73.9989 98.7687 74.0776 98.2398 74.0722C97.6178 74.0823 96.9998 73.9707 96.4206 73.7438C95.8913 73.531 95.4149 73.2049 95.0251 72.7883C94.624 72.3504 94.3187 71.8338 94.1286 71.2712C93.9054 70.625 93.7944 69.9453 93.8003 69.2617C93.7897 68.5918 93.8952 67.9253 94.1122 67.2915H94.109ZM68.6247 64.589H70.4175V66.1816H70.4504C70.5556 65.9241 70.7008 65.6847 70.8805 65.4723C71.056 65.2651 71.2619 65.0858 71.4913 64.9404C71.7275 64.7936 71.9842 64.683 72.2531 64.612C72.5377 64.5342 72.8315 64.4955 73.1265 64.4971C73.7167 64.4774 74.2984 64.6415 74.7913 64.9667C75.2554 65.2919 75.5966 65.7638 75.76 66.3064H75.806C75.923 66.0286 76.0837 65.7715 76.2821 65.5446C76.4783 65.321 76.7062 65.1274 76.9585 64.9699C77.2184 64.8083 77.5005 64.6855 77.7959 64.6055C78.1073 64.5209 78.4287 64.4789 78.7514 64.4807C79.1818 64.4741 79.6096 64.5487 80.0123 64.7007C80.381 64.8369 80.7167 65.0495 80.9974 65.3246C81.2731 65.6042 81.4848 65.9403 81.618 66.3097C81.7666 66.7189 81.8401 67.1516 81.8347 67.587V73.9967H79.9631V68.0336C79.9968 67.5116 79.8261 66.9969 79.4869 66.5986C79.3091 66.4227 79.096 66.2864 78.8617 66.1987C78.6274 66.1109 78.3772 66.0738 78.1275 66.0897C77.8552 66.0862 77.5849 66.1376 77.3329 66.2407C77.0983 66.3379 76.8869 66.4833 76.7123 66.6676C76.5332 66.8565 76.3947 67.08 76.3051 67.3243C76.1965 67.5881 76.1386 67.8699 76.1343 68.1551V73.9934H74.2955V67.8792C74.2983 67.6283 74.2549 67.379 74.1674 67.1437C74.0898 66.9321 73.9678 66.7395 73.8095 66.5789C73.6484 66.4198 73.4546 66.2977 73.2415 66.221C73.0006 66.1332 72.7458 66.0899 72.4895 66.093C72.2142 66.0905 71.9413 66.1453 71.6883 66.2538C71.4497 66.3577 71.235 66.5098 71.0578 66.7004C70.8779 66.8967 70.7384 67.1266 70.6474 67.3769C70.5149 67.6423 70.4304 67.9291 70.3978 68.224V73.9901H68.6247V64.589V64.589ZM72.6931 109.608C64.484 109.608 59.3123 103.894 59.3123 94.7722C59.3123 85.6503 64.4709 79.917 72.6931 79.917C80.9153 79.917 86.0542 85.6503 86.0542 94.7722C86.0542 103.894 80.9153 109.608 72.6931 109.608V109.608ZM87.9193 73.9704C87.6145 74.0477 87.3012 74.0863 86.9867 74.0853C86.5495 74.0904 86.1145 74.0227 85.6996 73.885C85.3308 73.7645 84.9894 73.5726 84.6948 73.3202C84.414 73.0786 84.1897 72.7782 84.038 72.4402C83.8782 72.0785 83.7986 71.6864 83.8049 71.2909C83.7901 70.9179 83.8663 70.5468 84.0271 70.2098C84.1879 69.8728 84.4283 69.5801 84.7276 69.3569C85.5216 68.8343 86.4499 68.5526 87.4005 68.5458L89.9387 68.3981V67.6757C89.9539 67.4436 89.9153 67.2111 89.8259 66.9964C89.7365 66.7816 89.5986 66.5905 89.4232 66.4377C89.0002 66.1308 88.4835 65.9811 87.962 66.0141C87.7212 66.0127 87.4814 66.0448 87.2494 66.1094C87.0421 66.1678 86.8458 66.2599 86.6682 66.3819C86.5043 66.4964 86.3638 66.6413 86.2545 66.8088C86.1433 66.9759 86.0663 67.1634 86.0279 67.3604H84.2679C84.2762 66.957 84.3821 66.5615 84.5766 66.2079C84.773 65.8503 85.0413 65.5373 85.3646 65.2885C85.7161 65.0178 86.1131 64.812 86.5369 64.681C87.0141 64.5327 87.5115 64.4596 88.0112 64.4643C88.537 64.457 89.0607 64.5301 89.5644 64.681C89.9977 64.8098 90.4024 65.0204 90.7564 65.3016C91.0821 65.5675 91.3427 65.9045 91.5182 66.2867C91.7006 66.6841 91.7925 67.117 91.7874 67.5542V73.9901H89.9978V72.4238H89.9584C89.8259 72.678 89.6553 72.9105 89.4528 73.1134C89.2464 73.3188 89.0134 73.4955 88.7599 73.6387C88.4951 73.7842 88.2126 73.8946 87.9193 73.9671V73.9704ZM99.7404 109.608C93.4686 109.608 89.2065 106.324 88.9044 101.165H92.9859C93.3143 104.121 96.1514 106.065 100.056 106.065C103.799 106.065 106.488 104.111 106.488 101.445C106.488 99.146 104.846 97.7406 101.074 96.7851L97.4024 95.8591C92.1059 94.5456 89.6957 92.1354 89.6957 88.1721C89.6957 83.2926 93.9645 79.9072 100.029 79.9072C105.963 79.9072 110.104 83.3123 110.264 88.2115H106.226C106.129 87.4857 105.889 86.7863 105.521 86.1535C105.153 85.5207 104.663 84.9671 104.079 84.5245C103.496 84.0819 102.831 83.7591 102.122 83.5747C101.414 83.3904 100.676 83.3481 99.9505 83.4502C96.3845 83.4502 93.9185 85.2825 93.9185 87.9324C93.9185 90.0208 95.4717 91.2587 99.2544 92.2011L102.361 92.9761C108.271 94.411 110.704 96.7391 110.704 100.922C110.704 106.258 106.482 109.585 99.7502 109.585L99.7404 109.608ZM72.6931 83.5783C67.0584 83.5783 63.535 87.8996 63.535 94.7689C63.535 101.638 67.0584 105.933 72.6931 105.933C78.3278 105.933 81.8511 101.612 81.8511 94.7689C81.8511 87.9258 78.3081 83.5783 72.6931 83.5783Z" fill="white"/>
<defs>
<linearGradient id="paint0_linear_5_39" x1="-20.812" y1="167.012" x2="146.888" y2="16.168" gradientUnits="userSpaceOnUse">
<stop stop-color="white" stop-opacity="0.384"/>
<stop offset="1" stop-color="white" stop-opacity="0"/>
</linearGradient>
</defs>
</svg>
