<svg width="173" height="173" viewBox="0 0 173 173" fill="none" xmlns="http://www.w3.org/2000/svg">
<path d="M0 32.8363L0 139.164C0 157.299 14.7013 172 32.8363 172H139.164C157.299 172 172 157.299 172 139.164V32.8363C172 14.7013 157.299 0 139.164 0H32.8363C14.7013 0 0 14.7013 0 32.8363Z" fill="url(#paint0_linear_5_46)"/>
<path d="M1.64182 32.8363L1.64182 139.164C1.64182 156.392 15.6081 170.358 32.8363 170.358H139.164C156.392 170.358 170.358 156.392 170.358 139.164V32.8363C170.358 15.6081 156.392 1.64182 139.164 1.64182H32.8363C15.6081 1.64182 1.64182 15.6081 1.64182 32.8363Z" stroke="white" stroke-opacity="0.25"/>
<path d="M114.274 134.714C108.603 140.218 102.348 139.357 96.3878 136.763C93.4329 135.413 90.2222 134.715 86.9736 134.715C83.725 134.715 80.5143 135.413 77.5594 136.763C69.2223 140.375 64.7959 139.315 59.7753 134.714C31.4277 105.529 35.611 61.0689 67.83 59.3976C75.6451 59.8146 81.1156 63.7188 85.716 64.0406C92.5591 62.6352 99.0968 58.6653 106.429 59.1874C110.304 59.2899 114.104 60.284 117.533 62.0927C120.961 63.9013 123.927 66.4758 126.2 69.6162C122.41 71.744 119.301 74.9028 117.234 78.7261C115.166 82.5493 114.225 86.8804 114.52 91.2168C114.815 95.5532 116.333 99.7172 118.898 103.226C121.463 106.734 124.971 109.444 129.014 111.039C126.077 120.024 121.018 128.169 114.264 134.783L114.274 134.714ZM85.0888 59.0823C84.8424 52.9585 86.9662 46.9753 91.0186 42.3774C95.0709 37.7795 100.74 34.9208 106.846 34.396C108.511 49.3562 93.2486 60.5468 85.0888 59.0823Z" fill="white"/>
<defs>
<linearGradient id="paint0_linear_5_46" x1="-20.812" y1="167.012" x2="146.888" y2="16.168" gradientUnits="userSpaceOnUse">
<stop stop-color="white" stop-opacity="0.384"/>
<stop offset="1" stop-color="white" stop-opacity="0"/>
</linearGradient>
</defs>
</svg>
