<svg width="173" height="173" viewBox="0 0 173 173" fill="none" xmlns="http://www.w3.org/2000/svg">
<path d="M0 32.8363L0 139.164C0 157.299 14.7013 172 32.8363 172H139.164C157.299 172 172 157.299 172 139.164V32.8363C172 14.7013 157.299 0 139.164 0H32.8363C14.7013 0 0 14.7013 0 32.8363Z" fill="url(#paint0_linear_5_32)"/>
<path d="M1.64182 32.8363L1.64182 139.164C1.64182 156.392 15.6081 170.358 32.8363 170.358H139.164C156.392 170.358 170.358 156.392 170.358 139.164V32.8363C170.358 15.6081 156.392 1.64182 139.164 1.64182H32.8363C15.6081 1.64182 1.64182 15.6081 1.64182 32.8363Z" stroke="white" stroke-opacity="0.25"/>
<path d="M74.9359 48.9293L42.6873 53.7661C42.1776 53.8425 41.7123 54.0992 41.376 54.4898C41.0397 54.8803 40.8549 55.3786 40.855 55.8939V81.6934C40.855 82.2639 41.0816 82.8109 41.485 83.2143C41.8883 83.6176 42.4354 83.8442 43.0058 83.8442H75.2544C75.8248 83.8442 76.3719 83.6176 76.7752 83.2143C77.1785 82.8109 77.4051 82.2639 77.4051 81.6934V51.0539C77.4065 50.7423 77.3403 50.4342 77.211 50.1508C77.0818 49.8673 76.8926 49.6153 76.6565 49.412C76.4201 49.2146 76.1445 49.0695 75.8479 48.9863C75.5513 48.9031 75.2405 48.8837 74.9359 48.9293V48.9293ZM130.406 41.377C130.171 41.1772 129.896 41.0298 129.599 40.9443C129.303 40.8588 128.991 40.8373 128.686 40.8812L83.5423 47.6389C83.0332 47.7159 82.5686 47.973 82.233 48.3635C81.8974 48.7539 81.713 49.2518 81.7133 49.7667V81.6934C81.7133 82.2639 81.9399 82.8109 82.3432 83.2143C82.7466 83.6176 83.2936 83.8442 83.8641 83.8442H129.014C129.584 83.8442 130.132 83.6176 130.535 83.2143C130.938 82.8109 131.165 82.2639 131.165 81.6934V42.9925C131.163 42.6825 131.094 42.3764 130.963 42.0953C130.833 41.8142 130.642 41.5647 130.406 41.3638V41.377ZM75.2412 88.1556H43.0058C42.4377 88.1556 41.8926 88.3804 41.4896 88.7809C41.0866 89.1814 40.8585 89.7251 40.855 90.2933V116.093C40.8549 116.608 41.0397 117.106 41.376 117.497C41.7123 117.887 42.1776 118.144 42.6873 118.221L74.9359 123.057C75.0446 123.073 75.1544 123.081 75.2642 123.08C75.8346 123.08 76.3817 122.854 76.7851 122.45C77.1884 122.047 77.415 121.5 77.415 120.93V90.2933C77.415 90.01 77.359 89.7295 77.2503 89.4679C77.1416 89.2063 76.9823 88.9688 76.7816 88.7689C76.5808 88.5691 76.3425 88.4109 76.0805 88.3034C75.8184 88.1959 75.5376 88.1412 75.2544 88.1425L75.2412 88.1556ZM128.991 88.1556H83.8706C83.3002 88.1556 82.7531 88.3822 82.3498 88.7856C81.9464 89.1889 81.7198 89.736 81.7198 90.3064V122.233C81.7197 122.749 81.9045 123.247 82.2408 123.637C82.5771 124.028 83.0424 124.285 83.5521 124.361L128.702 131.132C128.811 131.147 128.921 131.155 129.03 131.155C129.601 131.155 130.148 130.928 130.551 130.525C130.955 130.122 131.181 129.574 131.181 129.004V90.2933C131.181 90.0086 131.125 89.7268 131.015 89.4641C130.905 89.2014 130.745 88.9631 130.542 88.7631C130.339 88.563 130.099 88.4051 129.835 88.2986C129.571 88.1921 129.289 88.139 129.004 88.1425L128.991 88.1556Z" fill="white"/>
<defs>
<linearGradient id="paint0_linear_5_32" x1="-20.812" y1="167.012" x2="146.888" y2="16.168" gradientUnits="userSpaceOnUse">
<stop stop-color="white" stop-opacity="0.384"/>
<stop offset="1" stop-color="white" stop-opacity="0"/>
</linearGradient>
</defs>
</svg>
