<svg xmlns="http://www.w3.org/2000/svg" xmlns:xlink="http://www.w3.org/1999/xlink" width="50.296" height="50.269" viewBox="0 0 50.296 50.269">
  <defs>
    <linearGradient id="linear-gradient" x1="0.5" x2="-0.027" y2="0.182" gradientUnits="objectBoundingBox">
      <stop offset="0" stop-color="#00d1ef"/>
      <stop offset="0" stop-color="#3befe2"/>
      <stop offset="1" stop-color="#2599fa"/>
    </linearGradient>
  </defs>
  <g id="Group_29268" data-name="Group 29268" transform="translate(0 0)">
    <path id="Path_2850" data-name="Path 2850" d="M510.372,344.578l1.679-.958v-2.1h5.018V343.6c.5.3.969.6,1.456.857a.568.568,0,0,0,.454-.031c.522-.276,1.028-.582,1.6-.91l2.518,4.346c-.483.281-.95.574-1.436.829-.309.162-.486.327-.4.722a2.283,2.283,0,0,1,0,.936c-.086.4.1.558.4.719.477.248.934.535,1.431.823l-2.515,4.351c-.532-.307-1.05-.589-1.549-.9a.5.5,0,0,0-.648.029c-.4.278-.837.5-1.289.761v2.086H512.05c0-.576-.014-1.179.006-1.781a.461.461,0,0,0-.324-.5c-.453-.215-.878-.489-1.329-.747-.735,1.724-2.351,2.145-3.925,2.492a23.712,23.712,0,0,1-11.362-.182,9.323,9.323,0,0,1-2.185-.968A2.043,2.043,0,0,1,491.9,354.6q.033-7.2,0-14.395a2.348,2.348,0,0,1,1.3-2.2,10.315,10.315,0,0,1,3.66-1.186,24.445,24.445,0,0,1,9.883.3,11.7,11.7,0,0,1,2.547,1.044,2.025,2.025,0,0,1,1.094,1.992C510.343,341.607,510.372,343.065,510.372,344.578Zm.31,8.512a5.691,5.691,0,0,0,2.8,1.717c.107.029.224.241.232.375.029.447.011.9.011,1.365h1.679c0-.477-.014-.928.009-1.377.006-.124.1-.329.195-.352a5.905,5.905,0,0,0,2.863-1.72l1.492.84.833-1.441a12.153,12.153,0,0,1-1.156-.682.637.637,0,0,1-.229-.524,5.74,5.74,0,0,0,0-2.845.638.638,0,0,1,.237-.52,12.366,12.366,0,0,1,1.146-.681l-.839-1.436-1.493.845a5.778,5.778,0,0,0-2.868-1.728c-.088-.022-.175-.234-.182-.362-.022-.448-.009-.9-.009-1.362h-1.678a9.466,9.466,0,0,0,.007,1.012c.054.485-.077.754-.608.865a3.67,3.67,0,0,0-1.187.528c-.464.3-.878.675-1.315,1.019l-1.449-.817-.837,1.435c.4.233.755.456,1.124.646.254.13.365.279.277.573a5.257,5.257,0,0,0-.018,2.84.638.638,0,0,1-.236.519,12.392,12.392,0,0,1-1.146.682l.838,1.434Zm-1.989-11.126a23.783,23.783,0,0,1-15.1,0v1.477c0,1.784.014,1.86,1.782,2.343a22.484,22.484,0,0,0,10.835.2,2.1,2.1,0,0,0,1.676-1.273,8.557,8.557,0,0,1,.753-1.166.477.477,0,0,0,.057-.243C508.7,342.848,508.693,342.4,508.693,341.964Zm-15.1,4.937v1.561c0,1.779.022,1.808,1.726,2.341.033.01.069.014.1.023a22.091,22.091,0,0,0,8.776.541c1.246-.16,2.464-.538,3.681-.814a10.355,10.355,0,0,1,.011-1.246.487.487,0,0,0-.311-.572c-.447-.236-.869-.521-1.324-.739a1.359,1.359,0,0,0-.746-.143,27.22,27.22,0,0,1-7.312.183A15.513,15.513,0,0,1,493.589,346.9Zm14.475,8.484c-.456-.789-.91-1.533-1.318-2.3a.565.565,0,0,0-.738-.332,24.742,24.742,0,0,1-10.539-.176c-.628-.149-1.234-.392-1.88-.6,0,.9-.026,1.753.017,2.6a.892.892,0,0,0,.37.652,8.651,8.651,0,0,0,1.735.7,22.628,22.628,0,0,0,8.156.5A12.473,12.473,0,0,0,508.064,355.385Zm.643-15.425.016-.291a16.211,16.211,0,0,0-1.782-.773,21.194,21.194,0,0,0-7.518-.69,14.717,14.717,0,0,0-4.9.988,11.738,11.738,0,0,0-1.115.637c.5.274.83.494,1.189.642a15,15,0,0,0,4.957.966,20.655,20.655,0,0,0,7.661-.789A13.356,13.356,0,0,0,508.707,339.961Z" transform="translate(-481.863 -308.009)" fill="url(#linear-gradient)"/>
    <path id="Path_2851" data-name="Path 2851" d="M436.9,146.533h-4.985v1.658h1.629v1.659H423.525V148.2h1.63v-1.676h-4.988V133.147H436.9Zm-15.067-5.065h13.383v-6.64H421.835Zm0,3.349h13.377V143.2H421.837Zm8.352,1.743H426.9v1.609h3.289Z" transform="translate(-420.167 -133.135)" fill="url(#linear-gradient)"/>
    <path id="Path_2852" data-name="Path 2852" d="M676.938,149.9H660.215V133.191h16.723Zm-15.053-10.017v8.332h13.383v-8.332Zm-.007-1.727h13.378v-3.288H661.879Z" transform="translate(-626.642 -133.173)" fill="url(#linear-gradient)"/>
    <path id="Path_2853" data-name="Path 2853" d="M564.214,133.06h10.01v16.709h-10.01Zm8.331,11.7V134.754h-6.651v10.007Zm-3.722,3.34c-.593-.653-.592-1.014,0-1.614h-2.935V148.1Zm.767-.009h2.95V146.48h-2.962C570.214,147.075,570.215,147.481,569.59,148.092Z" transform="translate(-544.067 -133.06)" fill="url(#linear-gradient)"/>
    <path id="Path_2854" data-name="Path 2854" d="M490.938,269.878H474.173v-4.989h1.649v3.3h15.1v-3.3h1.679v3.3h15.1v-3.3h1.661v5H492.617v3.332h-1.679Z" transform="translate(-466.62 -246.451)" fill="url(#linear-gradient)"/>
    <path id="Path_2869" data-name="Path 2869" d="M678.815,152.627a.836.836,0,1,1,.855-.807A.84.84,0,0,1,678.815,152.627Z" transform="translate(-641.932 -148.452)" fill="url(#linear-gradient)"/>
    <path id="Path_2870" data-name="Path 2870" d="M697.683,151.815a.847.847,0,0,1-.816.845.834.834,0,1,1,.816-.845Z" transform="translate(-657.428 -148.485)" fill="url(#linear-gradient)"/>
    <path id="Path_2871" data-name="Path 2871" d="M714.845,152.606a.838.838,0,1,1,.839-.823A.845.845,0,0,1,714.845,152.606Z" transform="translate(-672.91 -148.431)" fill="url(#linear-gradient)"/>
    <path id="Path_2872" data-name="Path 2872" d="M645.364,422.128a1.677,1.677,0,1,1-1.677-1.7A1.687,1.687,0,0,1,645.364,422.128Z" transform="translate(-610.982 -380.236)" fill="url(#linear-gradient)"/>
  </g>
</svg>
