<svg id="Group_29899" data-name="Group 29899" xmlns="http://www.w3.org/2000/svg" width="40" height="40" viewBox="0 0 40 40">
  <rect id="Rectangle_8944" data-name="Rectangle 8944" width="40" height="40" rx="8" fill="#cc0124"/>
  <g id="chiliz-chz-coin" transform="translate(11.284 9.985)">
    <path id="Path_2807" data-name="Path 2807" d="M19.275,16.214c0-.252,0-.378-.252-.5-.882-.63-1.89-1.26-2.772-1.89a.567.567,0,0,0-.63,0L12.85,15.836a.693.693,0,0,0-.378.63,1.348,1.348,0,0,1-.252.756.567.567,0,0,0,0,.63c1.008,2.016,1.89,4.032,2.9,6.048.378.63.63,1.386,1.008,2.142.126-.126.126-.252.252-.378,1.134-2.52,2.142-5.04,3.276-7.56.126-.252.126-.378-.126-.5a1.651,1.651,0,0,1-.252-1.386Z" transform="translate(-7.432 -6.512)" fill="#0d0d1d"/>
    <path id="Path_2808" data-name="Path 2808" d="M15.96,14.166C13.44,12.4,10.92,10.638,8.526,9L8.4,9.126c.126.252.126.378.252.63l2.646,5.67c.252.5.378,1.008,1.134,1.134a1.134,1.134,0,0,0,.63-.126c.756-.63,1.638-1.134,2.394-1.764Z" transform="translate(-8.4 -7.74)" fill="#0d0d1d"/>
    <path id="Path_2810" data-name="Path 2810" d="M16.638,13.544a.567.567,0,0,0,.63,0c2.394-1.764,4.788-3.4,7.056-5.166.126-.126.252-.126.252-.252V8H8.7a.97.97,0,0,1,.378.252Z" transform="translate(-8.322 -8)" fill="#0d0d1d"/>
    <path id="Path_2811" data-name="Path 2811" d="M16,14.114c1.008.756,2.016,1.386,3.024,2.016.252.126.63,0,1.008,0,.126,0,.252-.252.252-.378.882-2.016,1.764-4.158,2.646-6.174,0-.126.126-.252.126-.378H22.93C20.788,10.712,18.394,12.35,16,14.114Z" transform="translate(-6.424 -7.688)" fill="#0d0d1d"/>
  </g>
</svg>
