<svg xmlns="http://www.w3.org/2000/svg" xmlns:xlink="http://www.w3.org/1999/xlink" width="40" height="40" viewBox="0 0 40 40">
  <defs>
    <linearGradient id="linear-gradient" x1="0.5" x2="-0.027" y2="0.182" gradientUnits="objectBoundingBox">
      <stop offset="0" stop-color="#00d1ef"/>
      <stop offset="0" stop-color="#3befe2"/>
      <stop offset="1" stop-color="#2599fa"/>
    </linearGradient>
  </defs>
  <g id="Group_2961" data-name="Group 2961" transform="translate(-185.095 -7183.095)">
    <rect id="Rectangle_8441" data-name="Rectangle 8441" width="40" height="40" transform="translate(185.095 7183.095)" fill="none"/>
    <g id="Group_2960" data-name="Group 2960" transform="translate(187.62 7189.056)">
      <g id="Group_2959" data-name="Group 2959">
        <g id="Group_2958" data-name="Group 2958">
          <path id="Path_914" data-name="Path 914" d="M222.6,7225.483H195.031a3.763,3.763,0,0,1-3.759-3.759v-20.465a3.763,3.763,0,0,1,3.759-3.759H222.6a3.763,3.763,0,0,1,3.759,3.759v20.465A3.763,3.763,0,0,1,222.6,7225.483Zm-27.565-25.477a1.255,1.255,0,0,0-1.253,1.253v20.465a1.254,1.254,0,0,0,1.253,1.253H222.6a1.254,1.254,0,0,0,1.253-1.253v-20.465a1.255,1.255,0,0,0-1.253-1.253Z" transform="translate(-191.272 -7197.5)" fill="url(#linear-gradient)"/>
        </g>
      </g>
      <path id="Path_915" data-name="Path 915" d="M232.171,7221.619l-6-4.842a1.2,1.2,0,0,0-1.971.924l-.01,9.705a1.192,1.192,0,0,0,.691,1.09,1.211,1.211,0,0,0,.516.116,1.18,1.18,0,0,0,.757-.274l6.018-4.857.007-.006a1.2,1.2,0,0,0-.007-1.856Z" transform="translate(-210.441 -7208.563)" fill="url(#linear-gradient)"/>
    </g>
  </g>
</svg>
