<svg id="Group_29900" data-name="Group 29900" xmlns="http://www.w3.org/2000/svg" width="40" height="40" viewBox="0 0 40 40">
  <path id="Path_2816" data-name="Path 2816" d="M8,0H32a8,8,0,0,1,8,8V32a8,8,0,0,1-8,8H8a8,8,0,0,1-8-8V8A8,8,0,0,1,8,0Z" fill="#fff"/>
  <g id="Layer_2_1_" transform="translate(6.765 7.714)">
    <g id="Layer_1-2">
      <path id="Path_2818" data-name="Path 2818" d="M102.761,149.794a1.791,1.791,0,0,0,1.688,1.886h.106a1.79,1.79,0,1,0-1.794-1.886Z" transform="translate(-95.471 -137.597)" fill="#0033ad"/>
      <path id="Path_2819" data-name="Path 2819" d="M.6,165.483a.579.579,0,1,0,.546.61.574.574,0,0,0-.546-.61Z" transform="translate(0.008 -153.747)" fill="#0033ad"/>
      <path id="Path_2820" data-name="Path 2820" d="M90.18,11.035A.58.58,0,0,0,89.655,10a.58.58,0,0,0,.525,1.035Z" transform="translate(-83.003 -9.233)" fill="#0033ad"/>
      <path id="Path_2821" data-name="Path 2821" d="M109.862,47.959a.893.893,0,1,0-1.2-.4A.895.895,0,0,0,109.862,47.959Z" transform="translate(-100.87 -42.988)" fill="#0033ad"/>
      <path id="Path_2822" data-name="Path 2822" d="M36.211,83.073A.738.738,0,1,0,36,82.052h0A.734.734,0,0,0,36.211,83.073Z" transform="translate(-33.332 -75.925)" fill="#0033ad"/>
      <path id="Path_2823" data-name="Path 2823" d="M43.523,160.98a.895.895,0,1,0,.844.943h0A.9.9,0,0,0,43.523,160.98Z" transform="translate(-39.559 -149.563)" fill="#0033ad"/>
      <path id="Path_2824" data-name="Path 2824" d="M36.688,244.662a.739.739,0,1,0,.993.326h0a.742.742,0,0,0-.993-.326Z" transform="translate(-33.709 -227.238)" fill="#0033ad"/>
      <path id="Path_2825" data-name="Path 2825" d="M84.74,109.594a1.05,1.05,0,1,0-.3-1.454,1.044,1.044,0,0,0,.3,1.454Z" transform="translate(-78.287 -100.027)" fill="#0033ad"/>
      <path id="Path_2826" data-name="Path 2826" d="M241.175,47.581a.9.9,0,1,0-.255-1.241h0a.886.886,0,0,0,.255,1.241Z" transform="translate(-223.696 -42.68)" fill="#0033ad"/>
      <path id="Path_2827" data-name="Path 2827" d="M268.887,10.62a.579.579,0,1,0-.17-.808.6.6,0,0,0,.17.808Z" transform="translate(-249.578 -8.874)" fill="#0033ad"/>
      <path id="Path_2828" data-name="Path 2828" d="M223.647,147.861a1.79,1.79,0,1,0-.2,3.574h.1a1.788,1.788,0,0,0,.1-3.574Z" transform="translate(-206.033 -137.372)" fill="#0033ad"/>
      <path id="Path_2829" data-name="Path 2829" d="M132.57,98.981a1.792,1.792,0,1,0,.794-2.411,1.794,1.794,0,0,0-.794,2.411Z" transform="translate(-122.99 -89.542)" fill="#0033ad"/>
      <path id="Path_2830" data-name="Path 2830" d="M318.9,82.554a.737.737,0,1,0-1-.326.75.75,0,0,0,1,.326Z" transform="translate(-295.289 -75.405)" fill="#0033ad"/>
      <path id="Path_2831" data-name="Path 2831" d="M261.393,107.366a1.051,1.051,0,1,0,1.411.468A1.052,1.052,0,0,0,261.393,107.366Z" transform="translate(-242.318 -99.65)" fill="#0033ad"/>
      <path id="Path_2832" data-name="Path 2832" d="M177.381,1.461a.747.747,0,0,0,.78-.695.739.739,0,0,0-1.475-.092.749.749,0,0,0,.695.787Z" transform="translate(-164.156 0.015)" fill="#0033ad"/>
      <path id="Path_2833" data-name="Path 2833" d="M173.376,58.573a1.051,1.051,0,1,0-.993-1.106,1.044,1.044,0,0,0,.993,1.106Z" transform="translate(-160.158 -52.467)" fill="#0033ad"/>
      <path id="Path_2834" data-name="Path 2834" d="M86.036,211.6a1.051,1.051,0,1,0-1.411-.468A1.052,1.052,0,0,0,86.036,211.6Z" transform="translate(-78.52 -194.748)" fill="#0033ad"/>
      <path id="Path_2835" data-name="Path 2835" d="M192.175,97.208a1.79,1.79,0,1,0,1.5-.808A1.785,1.785,0,0,0,192.175,97.208Z" transform="translate(-178.276 -89.563)" fill="#0033ad"/>
      <path id="Path_2836" data-name="Path 2836" d="M195.468,200.464a1.79,1.79,0,1,0-.794,2.4h0a1.782,1.782,0,0,0,.8-2.39C195.475,200.471,195.475,200.471,195.468,200.464Z" transform="translate(-178.457 -185.331)" fill="#0033ad"/>
      <path id="Path_2837" data-name="Path 2837" d="M262.689,209.335a1.05,1.05,0,1,0,.3,1.454,1.044,1.044,0,0,0-.3-1.454Z" transform="translate(-242.55 -194.33)" fill="#0033ad"/>
      <path id="Path_2838" data-name="Path 2838" d="M308.967,161.323a.895.895,0,1,0-.943.844h0A.9.9,0,0,0,308.967,161.323Z" transform="translate(-285.397 -149.005)" fill="#0033ad"/>
      <path id="Path_2839" data-name="Path 2839" d="M359.3,164.683a.579.579,0,1,0,.546.61A.583.583,0,0,0,359.3,164.683Z" transform="translate(-333.257 -153.004)" fill="#0033ad"/>
      <path id="Path_2840" data-name="Path 2840" d="M319.46,244.139a.738.738,0,1,0,.213,1.021.734.734,0,0,0-.213-1.021Z" transform="translate(-295.748 -226.716)" fill="#0033ad"/>
      <path id="Path_2841" data-name="Path 2841" d="M90.85,320.648a.578.578,0,1,0,.163.8h0A.569.569,0,0,0,90.85,320.648Z" transform="translate(-83.574 -297.822)" fill="#0033ad"/>
      <path id="Path_2842" data-name="Path 2842" d="M269.655,320.262a.58.58,0,1,0,.525,1.035.58.58,0,0,0-.525-1.035Z" transform="translate(-250.24 -297.492)" fill="#0033ad"/>
      <path id="Path_2843" data-name="Path 2843" d="M135.833,202.356a1.793,1.793,0,1,0-2.482.518,1.8,1.8,0,0,0,2.482-.518Z" transform="translate(-123.14 -185.429)" fill="#0033ad"/>
      <path id="Path_2844" data-name="Path 2844" d="M110.326,275.485a.9.9,0,1,0,.255,1.241h0A.887.887,0,0,0,110.326,275.485Z" transform="translate(-101.214 -255.814)" fill="#0033ad"/>
      <path id="Path_2845" data-name="Path 2845" d="M177.157,325.687a.739.739,0,1,0,.695.787.747.747,0,0,0-.695-.787Z" transform="translate(-163.868 -302.591)" fill="#0033ad"/>
      <path id="Path_2846" data-name="Path 2846" d="M172.98,260.374a1.051,1.051,0,1,0,.993,1.106,1.044,1.044,0,0,0-.993-1.106Z" transform="translate(-159.684 -241.908)" fill="#0033ad"/>
      <path id="Path_2847" data-name="Path 2847" d="M241.794,275.123a.9.9,0,1,0,1.213.4.9.9,0,0,0-1.213-.4Z" transform="translate(-224.194 -255.523)" fill="#0033ad"/>
    </g>
  </g>
</svg>
