<svg width="16" height="15" viewBox="0 0 16 15" fill="none" xmlns="http://www.w3.org/2000/svg">
<g clip-path="url(#clip0_4_6)">
<path d="M7.52706 14.3159C7.52972 14.2573 7.54398 14.1998 7.56901 14.1468C7.59403 14.0938 7.62934 14.0462 7.67287 14.0069C7.71641 13.9676 7.7673 13.9374 7.82262 13.9179C7.87793 13.8984 7.93656 13.8901 7.99511 13.8934C8.05366 13.8968 8.11096 13.9117 8.1637 13.9373C8.21644 13.963 8.26356 13.9988 8.30235 14.0428C8.34113 14.0868 8.37079 14.1381 8.38963 14.1936C8.40846 14.2491 8.41609 14.3079 8.41206 14.3664C8.40406 14.4828 8.35049 14.5913 8.26298 14.6685C8.17547 14.7456 8.06108 14.7851 7.94461 14.7785C7.82813 14.7718 7.71898 14.7196 7.64081 14.6329C7.56265 14.5463 7.52178 14.4324 7.52706 14.3159V14.3159ZM3.89694 13.8363C3.94765 13.7591 4.02698 13.7051 4.11746 13.6864C4.20795 13.6676 4.30219 13.6855 4.37944 13.7363C4.45669 13.787 4.51063 13.8663 4.5294 13.9568C4.54816 14.0473 4.53021 14.1415 4.4795 14.2188C4.45439 14.257 4.42198 14.2899 4.38414 14.3157C4.3463 14.3414 4.30376 14.3594 4.25895 14.3687C4.21414 14.378 4.16795 14.3784 4.123 14.3698C4.07804 14.3612 4.03522 14.3439 3.99697 14.3188C3.95872 14.2937 3.92579 14.2613 3.90006 14.2234C3.87433 14.1856 3.85631 14.143 3.84702 14.0982C3.83773 14.0534 3.83736 14.0072 3.84592 13.9623C3.85449 13.9173 3.87182 13.8745 3.89694 13.8363V13.8363ZM11.6831 13.6997C11.7239 13.679 11.7684 13.6666 11.8141 13.6632C11.8597 13.6597 11.9056 13.6653 11.949 13.6797C11.9925 13.694 12.0327 13.7168 12.0674 13.7466C12.102 13.7765 12.1305 13.813 12.151 13.8539C12.182 13.9154 12.1941 13.9848 12.1858 14.0532C12.1774 14.1216 12.1489 14.186 12.1039 14.2382C12.059 14.2904 11.9995 14.3281 11.9331 14.3466C11.8667 14.365 11.7963 14.3633 11.7309 14.3418C11.6654 14.3202 11.6078 14.2797 11.5654 14.2254C11.5229 14.1711 11.4976 14.1054 11.4924 14.0367C11.4873 13.968 11.5027 13.8993 11.5366 13.8393C11.5706 13.7793 11.6215 13.7307 11.6831 13.6997V13.6997ZM4.73844 11.9922C4.81658 11.8728 4.93892 11.7894 5.07855 11.7603C5.21819 11.7311 5.36369 11.7586 5.48306 11.8367C5.60242 11.915 5.68583 12.0374 5.71496 12.1771C5.74409 12.3169 5.71657 12.4624 5.63844 12.5819C5.55982 12.7003 5.43756 12.7827 5.29835 12.8113C5.15914 12.8398 5.01429 12.8121 4.89542 12.7342C4.77655 12.6564 4.69333 12.5346 4.66392 12.3956C4.63451 12.2566 4.6613 12.1115 4.73844 11.9922V11.9922ZM10.59 11.7937C10.6529 11.7616 10.7216 11.7422 10.792 11.7367C10.8625 11.7311 10.9333 11.7395 11.0005 11.7614C11.0677 11.7833 11.1299 11.8182 11.1836 11.8641C11.2373 11.9101 11.2814 11.9661 11.3134 12.0291C11.3615 12.1234 11.3808 12.2298 11.3688 12.3349C11.3568 12.4401 11.3141 12.5394 11.246 12.6204C11.1779 12.7014 11.0875 12.7606 10.9859 12.7905C10.8844 12.8205 10.7763 12.8198 10.6752 12.7887C10.574 12.7575 10.4843 12.6973 10.4172 12.6154C10.3501 12.5336 10.3086 12.4337 10.2979 12.3284C10.2872 12.2231 10.3077 12.117 10.357 12.0233C10.4062 11.9297 10.482 11.8526 10.5748 11.8017L10.59 11.7937ZM7.39138 11.4651C7.44619 11.3523 7.53324 11.2583 7.6415 11.1951C7.74975 11.1318 7.87435 11.1021 7.9995 11.1098C8.34775 11.1306 8.61344 11.4294 8.59338 11.7778C8.58807 11.8714 8.56206 11.9626 8.51722 12.045C8.47237 12.1273 8.40982 12.1986 8.33407 12.2538C8.25832 12.309 8.17125 12.3467 8.07916 12.3642C7.98707 12.3817 7.89224 12.3785 7.80153 12.3549C7.71081 12.3313 7.62646 12.2879 7.55457 12.2277C7.48268 12.1676 7.42504 12.0922 7.3858 12.0071C7.34656 11.922 7.32671 11.8292 7.32767 11.7355C7.32864 11.6417 7.3504 11.5494 7.39138 11.4651V11.4651ZM1.7895 10.4846C1.89417 10.4325 2.01517 10.4239 2.12617 10.4606C2.23717 10.4973 2.32917 10.5764 2.38214 10.6806C2.43511 10.7848 2.44475 10.9058 2.40898 11.0171C2.37321 11.1284 2.29491 11.221 2.19113 11.2749C2.08736 11.3287 1.96652 11.3394 1.85492 11.3046C1.74332 11.2697 1.65 11.1922 1.59528 11.0889C1.54057 10.9856 1.52888 10.8648 1.56278 10.7529C1.59667 10.6411 1.6734 10.5471 1.77625 10.4915L1.78944 10.4846H1.7895ZM13.6548 10.6107C13.6864 10.5614 13.7274 10.5188 13.7756 10.4855C13.8238 10.4521 13.8781 10.4287 13.9354 10.4164C13.9927 10.4042 14.0518 10.4035 14.1094 10.4142C14.167 10.425 14.2218 10.4471 14.2708 10.4792C14.3198 10.5113 14.362 10.5528 14.3948 10.6013C14.4277 10.6498 14.4506 10.7043 14.4623 10.7617C14.4739 10.8191 14.4741 10.8783 14.4628 10.9358C14.4514 10.9932 14.4288 11.0479 14.3962 11.0966C14.3312 11.1936 14.2305 11.2611 14.1161 11.2843C14.0016 11.3076 13.8826 11.2847 13.7849 11.2207C13.6873 11.1567 13.6188 11.0567 13.5944 10.9425C13.57 10.8282 13.5917 10.709 13.6548 10.6107V10.6107ZM6.223 8.64494C6.43393 8.53106 6.67682 8.4908 6.91321 8.53051C7.1496 8.57023 7.366 8.68766 7.52813 8.86421C7.69027 9.04076 7.78888 9.26635 7.80836 9.50527C7.82784 9.74418 7.76708 9.98276 7.63569 10.1833C7.53797 10.3332 7.40425 10.4564 7.24672 10.5414C7.08919 10.6264 6.91288 10.6706 6.73388 10.67C6.49419 10.6698 6.26141 10.5897 6.07239 10.4423C5.88336 10.2949 5.7489 10.0887 5.69026 9.85631C5.63163 9.6239 5.65219 9.37858 5.74868 9.15917C5.84517 8.93976 6.01209 8.75881 6.223 8.64494V8.64494ZM8.94438 8.56394C9.18877 8.48527 9.45323 8.49647 9.69009 8.59554C9.92695 8.6946 10.1206 8.87501 10.2363 9.10425C10.5021 9.63488 10.289 10.2807 9.75938 10.5488C9.60901 10.625 9.44298 10.6653 9.27438 10.6665C9.01765 10.6665 8.76936 10.5748 8.57426 10.4079C8.37916 10.241 8.25008 10.01 8.21027 9.75634C8.17047 9.50271 8.22255 9.24321 8.35715 9.02459C8.49174 8.80597 8.69999 8.6426 8.94438 8.56394V8.56394ZM3.75731 9.16207C3.81841 9.09106 3.8945 9.0345 3.9801 8.99645C4.06569 8.95839 4.15866 8.9398 4.25231 8.94201C4.34595 8.94421 4.43794 8.96716 4.52165 9.0092C4.60536 9.05124 4.6787 9.11132 4.73639 9.18512C4.79408 9.25892 4.83469 9.3446 4.85528 9.43598C4.87587 9.52736 4.87594 9.62217 4.85547 9.71358C4.83501 9.80499 4.79452 9.89072 4.73693 9.9646C4.67935 10.0385 4.60609 10.0987 4.52244 10.1408C4.39162 10.2067 4.24198 10.2253 4.09902 10.1933C3.95607 10.1613 3.82862 10.0807 3.7384 9.96529C3.64817 9.84987 3.60075 9.70675 3.6042 9.56029C3.60764 9.41384 3.66176 9.27311 3.75731 9.16207V9.16207ZM11.2416 9.21082C11.4336 8.91838 11.8263 8.83694 12.1186 9.02894C12.4105 9.22132 12.4918 9.61344 12.3005 9.906C12.1086 10.1984 11.7159 10.2798 11.4235 10.0879C11.1311 9.89588 11.0496 9.50325 11.2416 9.21082ZM4.38119 7.33725C4.41481 6.75144 4.91106 6.30038 5.49744 6.32263C6.08369 6.34488 6.54431 6.83225 6.53356 7.41888C6.52294 7.99888 6.05519 8.465 5.4775 8.476L5.45775 8.47619H5.39888C4.81069 8.44182 4.35994 7.94257 4.38319 7.35619L4.38413 7.33663L4.38119 7.33725V7.33725ZM9.46306 7.32513C9.49719 6.73107 10.0065 6.27713 10.6006 6.31125C10.7417 6.31849 10.8799 6.35375 11.0073 6.41499C11.1346 6.47623 11.2485 6.56222 11.3423 6.66794C11.4795 6.82156 11.5698 7.0113 11.6024 7.21468C11.6351 7.41805 11.6088 7.62653 11.5266 7.8154C11.4444 8.00427 11.3098 8.16561 11.1387 8.28031C10.9676 8.395 10.7672 8.45823 10.5613 8.4625L10.5393 8.46275H10.4769C9.88281 8.42863 9.42888 7.91932 9.463 7.32525L9.46306 7.32513ZM1.81825 7.37413C1.82634 7.2317 1.89067 7.09831 1.9971 7.00331C2.10352 6.9083 2.24332 6.85945 2.38575 6.8675C2.52824 6.87571 2.66165 6.94014 2.75666 7.04664C2.85168 7.15314 2.90054 7.293 2.8925 7.4355C2.88436 7.57796 2.81997 7.71134 2.71348 7.80632C2.607 7.90129 2.46714 7.95008 2.32469 7.94194C2.18223 7.9338 2.04885 7.86941 1.95387 7.76292C1.8589 7.65644 1.81011 7.51658 1.81825 7.37413V7.37413ZM13.1069 7.34975C13.1158 7.20785 13.1804 7.07521 13.2868 6.98084C13.3931 6.88646 13.5325 6.83801 13.6744 6.84608C13.8164 6.85414 13.9494 6.91807 14.0443 7.0239C14.1393 7.12972 14.1885 7.26882 14.1812 7.41082C14.173 7.55332 14.1086 7.68674 14.0021 7.78177C13.8956 7.8768 13.7557 7.92566 13.6132 7.91763C13.4708 7.90944 13.3374 7.84503 13.2425 7.73855C13.1476 7.63207 13.0988 7.49224 13.1069 7.34982V7.34975ZM0.354312 7.06307L0.367312 7.06357C0.412996 7.06605 0.45774 7.07753 0.498973 7.09735C0.540207 7.11718 0.577117 7.14495 0.607584 7.17908C0.63805 7.21322 0.661473 7.25303 0.676507 7.29624C0.691541 7.33945 0.697889 7.38521 0.695187 7.43088C0.691266 7.49899 0.667402 7.56445 0.626567 7.6191C0.585731 7.67375 0.529726 7.71519 0.46552 7.73826C0.401314 7.76133 0.331742 7.76502 0.26546 7.74885C0.199178 7.73268 0.139112 7.69738 0.0927371 7.64735C0.046362 7.59731 0.0157247 7.53473 0.00463718 7.46742C-0.00645032 7.4001 0.00250152 7.33101 0.0303789 7.26874C0.0582562 7.20647 0.103828 7.15377 0.161425 7.1172C0.219021 7.08063 0.286099 7.06181 0.354312 7.06307V7.06307ZM15.6571 7.02713L15.6716 7.02769C15.7638 7.03315 15.85 7.07494 15.9115 7.14389C15.973 7.21284 16.0046 7.30334 15.9994 7.39557C15.9955 7.46375 15.9716 7.52927 15.9308 7.58399C15.8899 7.63871 15.8339 7.68022 15.7696 7.70336C15.7054 7.72649 15.6357 7.73024 15.5694 7.71412C15.503 7.698 15.4428 7.66274 15.3963 7.61271C15.3498 7.56268 15.3191 7.5001 15.3079 7.43273C15.2967 7.36536 15.3055 7.29618 15.3333 7.23379C15.361 7.17141 15.4065 7.11855 15.4641 7.08181C15.5217 7.04507 15.5888 7.02605 15.6571 7.02713V7.02713ZM6.7245 4.12038C6.92384 4.11943 7.1195 4.174 7.28958 4.27796C7.45966 4.38192 7.59744 4.53117 7.6875 4.709C7.7707 4.87334 7.81039 5.05625 7.80279 5.24029C7.79519 5.42433 7.74055 5.60335 7.64408 5.76026C7.54761 5.91718 7.41254 6.04675 7.25175 6.13661C7.09096 6.22647 6.90982 6.27362 6.72563 6.27357C6.52585 6.27419 6.32988 6.21903 6.15975 6.11431C5.98963 6.00959 5.85211 5.85945 5.76269 5.68082C5.68045 5.51664 5.64152 5.33417 5.6496 5.15072C5.65767 4.96728 5.71249 4.78894 5.80883 4.63262C5.90518 4.47631 6.03987 4.3472 6.20013 4.25755C6.36038 4.1679 6.54088 4.12069 6.7245 4.12038V4.12038ZM9.26556 4.11275C9.50523 4.11307 9.73796 4.19331 9.9269 4.34077C10.1158 4.48823 10.2502 4.69449 10.3087 4.92691C10.3672 5.15932 10.3466 5.40462 10.25 5.62398C10.1534 5.84333 9.98647 6.02421 9.77553 6.138C9.56459 6.25178 9.32173 6.29196 9.08538 6.25219C8.84903 6.21242 8.6327 6.09496 8.47062 5.9184C8.30854 5.74184 8.20997 5.51627 8.19051 5.27739C8.17105 5.03851 8.23182 4.79996 8.36319 4.5995C8.46139 4.44985 8.59529 4.327 8.75283 4.24203C8.91036 4.15705 9.08657 4.11262 9.26556 4.11275V4.11275ZM3.69838 4.87857C3.89019 4.58607 4.28275 4.50438 4.57525 4.69619C4.86775 4.88794 4.94944 5.28057 4.75775 5.57307C4.56594 5.86557 4.17338 5.94732 3.88088 5.75557C3.81124 5.71002 3.75127 5.6512 3.7044 5.58245C3.65753 5.5137 3.62467 5.43638 3.60772 5.35492C3.59077 5.27346 3.59005 5.18945 3.60561 5.10771C3.62116 5.02597 3.65269 4.94811 3.69838 4.87857V4.87857ZM11.4776 4.64369C11.5519 4.60619 11.6328 4.5837 11.7158 4.57751C11.7988 4.57132 11.8822 4.58156 11.9612 4.60764C12.0402 4.63372 12.1133 4.67512 12.1763 4.72948C12.2392 4.78384 12.2909 4.85009 12.3283 4.92444C12.4856 5.23688 12.3598 5.61769 12.0474 5.77507C11.735 5.93238 11.3542 5.80663 11.1968 5.49425C11.0395 5.18182 11.1653 4.801 11.4776 4.64363V4.64369ZM1.60344 3.68832C1.66789 3.59 1.76876 3.52132 1.88386 3.49738C1.94085 3.48553 1.99961 3.48502 2.0568 3.49587C2.11399 3.50673 2.16848 3.52874 2.21716 3.56066C2.26584 3.59258 2.30775 3.63377 2.34051 3.68188C2.37327 3.73 2.39624 3.78409 2.40809 3.84108C2.41994 3.89807 2.42046 3.95684 2.4096 4.01402C2.39874 4.07121 2.37673 4.1257 2.34481 4.17438C2.28036 4.27269 2.17949 4.34137 2.06439 4.36531C1.9493 4.38925 1.82941 4.36649 1.73109 4.30203C1.63278 4.23758 1.5641 4.13671 1.54016 4.02161C1.51622 3.90652 1.53898 3.78663 1.60344 3.68832V3.68832ZM13.8104 3.50894C13.9152 3.45767 14.036 3.44977 14.1465 3.48695C14.2571 3.52414 14.3486 3.60341 14.4011 3.70757C14.4536 3.81173 14.4629 3.9324 14.427 4.04339C14.3912 4.15439 14.313 4.24677 14.2094 4.3005C14.1044 4.35336 13.9826 4.36233 13.8709 4.32547C13.7592 4.2886 13.6667 4.2089 13.6138 4.10388C13.561 3.99889 13.552 3.87723 13.5889 3.76566C13.6258 3.65409 13.7055 3.56172 13.8104 3.50888V3.50894ZM7.35725 3.00669C7.37725 2.65763 7.6765 2.39082 8.02563 2.41069C8.37469 2.43057 8.64163 2.72963 8.62188 3.07882C8.60219 3.42788 8.30325 3.69494 7.95413 3.67538C7.60469 3.65544 7.3375 3.35613 7.35725 3.00669V3.00669ZM4.9245 2.03C4.9876 1.99821 5.05634 1.97916 5.1268 1.97393C5.19726 1.96871 5.26805 1.97741 5.33515 1.99954C5.40225 2.02168 5.46433 2.05681 5.51784 2.10294C5.57136 2.14907 5.61527 2.20528 5.64706 2.26838C5.67886 2.33147 5.69791 2.40021 5.70313 2.47067C5.70836 2.54113 5.69966 2.61193 5.67752 2.67903C5.65539 2.74613 5.62025 2.8082 5.57413 2.86172C5.528 2.91524 5.47178 2.95915 5.40869 2.99094C5.28126 3.05515 5.13354 3.06611 4.99804 3.0214C4.86253 2.9767 4.75033 2.87999 4.68613 2.75257C4.62192 2.62514 4.61096 2.47742 4.65567 2.34192C4.70037 2.20641 4.79707 2.09421 4.9245 2.03V2.03ZM10.3593 2.20263C10.4175 2.1135 10.5009 2.04364 10.5989 2.00189C10.6969 1.96014 10.805 1.94837 10.9097 1.96807C11.0143 1.98777 11.1108 2.03806 11.1869 2.11257C11.2629 2.18708 11.3152 2.28248 11.3371 2.3867C11.359 2.49092 11.3495 2.59928 11.3098 2.6981C11.2701 2.79692 11.202 2.88175 11.1141 2.94187C11.0262 3.00199 10.9224 3.0347 10.8159 3.03587C10.7095 3.03704 10.605 3.00662 10.5158 2.94844C10.4565 2.90983 10.4053 2.85988 10.3653 2.80147C10.3253 2.74305 10.2973 2.67732 10.2827 2.60803C10.2682 2.53875 10.2674 2.46727 10.2806 2.3977C10.2937 2.32814 10.3204 2.26184 10.3593 2.20263V2.20263ZM3.99975 0.463754C4.08203 0.422554 4.17727 0.415575 4.26467 0.444338C4.35208 0.473101 4.42456 0.535271 4.4663 0.617281C4.50803 0.69929 4.51563 0.794478 4.48744 0.882071C4.45925 0.969663 4.39755 1.04255 4.31581 1.08482C4.27481 1.10578 4.23005 1.11843 4.18414 1.12202C4.13822 1.12562 4.09205 1.12009 4.04827 1.10576C4.0045 1.09142 3.964 1.06857 3.9291 1.03851C3.89421 1.00846 3.8656 0.971791 3.84494 0.930629C3.80373 0.848159 3.79688 0.752718 3.8259 0.665211C3.85492 0.577703 3.91743 0.505262 3.99975 0.463754V0.463754ZM11.5194 0.566254C11.5444 0.527949 11.5768 0.494951 11.6145 0.469143C11.6523 0.443335 11.6948 0.425223 11.7396 0.415842C11.7844 0.40646 11.8306 0.405992 11.8756 0.414465C11.9206 0.422938 11.9634 0.440185 12.0017 0.465223C12.04 0.49026 12.073 0.522597 12.0988 0.560387C12.1246 0.598177 12.1428 0.64068 12.1521 0.68547C12.1615 0.73026 12.162 0.776459 12.1535 0.82143C12.145 0.8664 12.1278 0.909261 12.1028 0.947566C12.0522 1.02493 11.973 1.07903 11.8825 1.09799C11.7921 1.11694 11.6978 1.09919 11.6204 1.04863C11.5431 0.998072 11.489 0.918854 11.47 0.828403C11.4511 0.737952 11.4688 0.643677 11.5194 0.566316V0.566254ZM7.83775 0.0250039C7.8929 0.00489373 7.9515 -0.0040606 8.01014 -0.00133925C8.06878 0.0013821 8.1263 0.0157249 8.17935 0.0408566C8.2324 0.0659882 8.27994 0.101408 8.31919 0.14506C8.35844 0.188711 8.38863 0.239725 8.40801 0.29514C8.42738 0.350555 8.43556 0.409266 8.43206 0.467866C8.42855 0.526466 8.41345 0.583786 8.38761 0.6365C8.36178 0.689214 8.32573 0.736271 8.28156 0.77494C8.23739 0.813608 8.18598 0.843117 8.13031 0.861754C8.01981 0.898751 7.89917 0.89074 7.79453 0.839454C7.68988 0.788168 7.60964 0.697735 7.57118 0.587728C7.53272 0.477722 7.53913 0.356994 7.58902 0.251676C7.63891 0.146359 7.72827 0.0649256 7.83775 0.0250039V0.0250039Z" fill="#0033AD"/>
</g>
<defs>
<clipPath id="clip0_4_6">
<rect width="16" height="14.8125" fill="white"/>
</clipPath>
</defs>
</svg>
