<svg width="12" height="16" viewBox="0 0 12 16" fill="none" xmlns="http://www.w3.org/2000/svg">
<path d="M5.40481 5.46124C5.68971 4.26418 6.03283 3.18812 6.39738 2.48582C6.53141 2.15036 7.07518 1.34696 7.6718 0.816211C8.66514 -0.0683736 9.77948 -0.292775 10.9398 0.435572L10.8379 0.597171L10.9398 0.435572C11.5318 0.807021 11.7692 1.18919 11.6651 1.54915C11.5885 1.81721 11.2951 2.03165 11.1381 2.00944C10.9084 2.03242 10.6771 1.98647 10.4565 1.8241C10.2708 1.68108 10.1276 1.49018 10.0422 1.27191C9.87981 0.888969 9.6669 0.758771 9.40574 0.789406C9.21656 0.81085 8.99676 0.931858 8.92706 1.01304L8.74708 1.21217C8.58319 1.39368 8.48133 1.52541 8.3764 1.6985C8.01184 2.30584 7.67563 3.41865 7.20921 5.7247L10.3003 6.17733L10.1303 7.41575L6.99323 6.95623L6.8592 7.77112L6.82474 7.97484C6.80636 8.08053 6.78644 8.19541 6.76347 8.31795L9.93112 8.78207L9.74961 10.019L6.50767 9.54412C6.13315 11.1356 5.63993 12.8412 5.29146 13.5144C5.15667 13.8506 4.61366 14.6525 4.01704 15.184C3.0237 16.0678 1.90936 16.293 0.749058 15.5647C0.157037 15.1932 -0.0803837 14.8103 0.0237752 14.4503C0.100363 14.1823 0.393692 13.9686 0.550696 13.9908C0.780459 13.9678 1.01175 14.0138 1.23232 14.1754C1.40235 14.301 1.54327 14.4832 1.64666 14.7283C1.80903 15.1105 2.02194 15.2415 2.2831 15.2108C2.47228 15.1886 2.69208 15.0676 2.76178 14.9864C3.45642 14.2129 4.00709 12.7225 4.70327 9.28065L1.6122 8.82726L1.78222 7.58884L4.91924 8.04836L5.05404 7.23424C5.08382 7.05134 5.11574 6.86879 5.14977 6.68664L1.99437 6.22482L2.17512 4.98793L5.40481 5.46124V5.46124Z" fill="white"/>
</svg>
