<svg width="10" height="12" viewBox="0 0 10 12" fill="none" xmlns="http://www.w3.org/2000/svg">
<path d="M7.12061 5.83334C7.12061 5.68182 7.12061 5.60606 6.96909 5.53271C6.43879 5.15392 5.83273 4.77514 5.30243 4.39635C5.24636 4.35889 5.18046 4.3389 5.11303 4.3389C5.04561 4.3389 4.9797 4.35889 4.92364 4.39635L3.25757 5.60606C3.188 5.64155 3.12979 5.69589 3.08961 5.76286C3.04942 5.82984 3.02887 5.90676 3.0303 5.98485C3.02676 6.14817 2.97395 6.30661 2.87879 6.4394C2.84133 6.49546 2.82133 6.56137 2.82133 6.62879C2.82133 6.69622 2.84133 6.76212 2.87879 6.81818C3.48485 8.03031 4.01515 9.24243 4.62241 10.4545C4.84968 10.8333 5.0012 11.2879 5.22847 11.7424C5.30423 11.6667 5.30423 11.5909 5.37999 11.5152C6.06181 10 6.66787 8.48485 7.34968 6.9697C7.42544 6.81819 7.42544 6.74243 7.27393 6.66908C7.18877 6.54995 7.13102 6.41345 7.10483 6.26938C7.07863 6.12531 7.08464 5.97722 7.12241 5.83574L7.12061 5.83334Z" fill="#0D0D1D"/>
<path d="M4.54545 3.86364C3.0303 2.80184 1.51515 1.74243 0.0757578 0.757584L0 0.833341C0.0757576 0.984857 0.0757581 1.06061 0.151516 1.21213L1.74242 4.62122C1.89394 4.92184 1.9697 5.22728 2.42424 5.30304C2.55517 5.31483 2.68671 5.28852 2.80303 5.22728C3.25758 4.84849 3.78788 4.54546 4.24242 4.16667L4.54545 3.86364Z" fill="#0D0D1D"/>
<path d="M5 3.33333C5.05606 3.37079 5.12197 3.39078 5.1894 3.39078C5.25682 3.39078 5.32273 3.37079 5.37879 3.33333C6.81818 2.27273 8.25758 1.28908 9.62121 0.227273C9.69697 0.151515 9.77273 0.151515 9.77273 0.0757578V0H0.227276C0.313959 0.0318023 0.391853 0.0837314 0.454549 0.151515L5 3.33333Z" fill="#0D0D1D"/>
<path d="M5.75758 3.86363C6.36364 4.31818 6.9697 4.69697 7.57576 5.07575C7.72727 5.15151 7.95455 5.07575 8.18182 5.07575C8.25758 5.07575 8.33333 4.92424 8.33333 4.84848C8.86364 3.63636 9.39394 2.34848 9.92424 1.13636C9.92424 1.0606 10 0.984846 10 0.909088H9.92424C8.63636 1.81818 7.19697 2.80303 5.75758 3.86363Z" fill="#0D0D1D"/>
</svg>
