<svg xmlns="http://www.w3.org/2000/svg" width="26.19" height="32.745" viewBox="0 0 26.19 32.745">
  <path id="icons8-android-os" d="M12.386.017A.607.607,0,0,0,12.141.1a.667.667,0,0,0-.164.921l1.412,2.108A8.309,8.309,0,0,0,9.051,8.508H27.139A8.309,8.309,0,0,0,22.8,3.127l1.412-2.108A.667.667,0,0,0,24.049.1a.671.671,0,0,0-.921.184L21.574,2.574a10.162,10.162,0,0,0-6.957,0L13.062.283A.657.657,0,0,0,12.386.017Zm2.108,5.218a.982.982,0,1,1-.982.982A.982.982,0,0,1,14.494,5.234Zm7.2,0a.982.982,0,1,1-.982.982A.981.981,0,0,1,21.7,5.234ZM6.964,9.818A1.965,1.965,0,0,0,5,11.782v9.167a1.965,1.965,0,0,0,1.964,1.964,1.92,1.92,0,0,0,.655-.123V9.94A1.92,1.92,0,0,0,6.964,9.818Zm1.964,0v14.4a1.968,1.968,0,0,0,1.964,1.964H25.3a1.968,1.968,0,0,0,1.964-1.964V9.818Zm20.3,0a1.92,1.92,0,0,0-.655.123V22.79a1.94,1.94,0,0,0,2.619-1.842V11.782A1.965,1.965,0,0,0,29.226,9.818ZM11.548,27.5v2.619a2.619,2.619,0,0,0,5.238,0V27.5Zm7.857,0v2.619a2.619,2.619,0,0,0,5.238,0V27.5Z" transform="translate(-5 0.011)" fill="#fff"/>
</svg>
