<svg xmlns="http://www.w3.org/2000/svg" width="27.5" height="27.499" viewBox="0 0 27.5 27.499">
  <path id="icons8-windows-10" d="M14.379,6.463,4.558,7.936A.655.655,0,0,0,4,8.584v7.857a.655.655,0,0,0,.655.655h9.821a.655.655,0,0,0,.655-.655V7.11a.656.656,0,0,0-.228-.5A.664.664,0,0,0,14.379,6.463Zm16.893-2.3a.664.664,0,0,0-.524-.151L17,6.07a.655.655,0,0,0-.557.648v9.723a.655.655,0,0,0,.655.655h13.75a.655.655,0,0,0,.655-.655V4.655A.656.656,0,0,0,31.272,4.159Zm-16.8,14.246H4.655A.655.655,0,0,0,4,19.06v7.857a.655.655,0,0,0,.558.648l9.821,1.473a.7.7,0,0,0,.1.007.655.655,0,0,0,.655-.655V19.06A.655.655,0,0,0,14.476,18.405Zm16.369,0H17.1a.655.655,0,0,0-.655.655v9.723a.655.655,0,0,0,.558.648l13.75,2.062a.69.69,0,0,0,.1.007.655.655,0,0,0,.655-.655V19.06A.655.655,0,0,0,30.845,18.405Z" transform="translate(-4 -4.001)" fill="#fff"/>
</svg>
