<svg xmlns="http://www.w3.org/2000/svg" width="26.538" height="30.098" viewBox="0 0 26.538 30.098">
  <path id="icons8-google-play" d="M6.391,2l14.18,14.077,3.888-3.888L7.271,2.266A1.881,1.881,0,0,0,6.391,2ZM5.2,2.655a1.614,1.614,0,0,0-.2.8V30.809a1.472,1.472,0,0,0,.123.593L19.63,17Zm20.441,10.21L21.492,17l4.154,4.113,5.074-2.905a1.29,1.29,0,0,0,.02-2.394C30.308,15.579,27.1,13.709,25.645,12.865Zm-5.074,5.054L6.269,32.1a1.611,1.611,0,0,0,.737-.2l11.888-6.875,5.586-3.212Z" transform="translate(-5 -2)" fill="#fff"/>
</svg>
