<svg xmlns="http://www.w3.org/2000/svg" width="27.172" height="27.172" viewBox="0 0 27.172 27.172">
  <path id="MacOS_logo" d="M15.205,9.265V9.041l-.7.048a.864.864,0,0,0-.445.125.368.368,0,0,0,0,.591.647.647,0,0,0,.4.109.884.884,0,0,0,.3-.048.735.735,0,0,0,.238-.135.6.6,0,0,0,.156-.2A.6.6,0,0,0,15.205,9.265ZM13.836.25A13.488,13.488,0,0,0,.25,13.836,13.487,13.487,0,0,0,13.836,27.422,13.487,13.487,0,0,0,27.422,13.836,13.487,13.487,0,0,0,13.836.25ZM16.474,8.3a1.348,1.348,0,0,1,.272-.463,1.189,1.189,0,0,1,.423-.3,1.522,1.522,0,0,1,1.046-.022,1.194,1.194,0,0,1,.378.22,1.051,1.051,0,0,1,.251.323,1.085,1.085,0,0,1,.111.39h-.545a.7.7,0,0,0-.074-.211.576.576,0,0,0-.139-.169.655.655,0,0,0-.2-.112.8.8,0,0,0-.265-.041.686.686,0,0,0-.557.268.936.936,0,0,0-.155.311,1.392,1.392,0,0,0-.056.407,1.419,1.419,0,0,0,.056.415.9.9,0,0,0,.157.31.679.679,0,0,0,.244.194.73.73,0,0,0,.314.067.744.744,0,0,0,.456-.132.615.615,0,0,0,.229-.385h.546a1.086,1.086,0,0,1-.124.409,1.052,1.052,0,0,1-.259.315,1.157,1.157,0,0,1-.376.2,1.52,1.52,0,0,1-.475.071,1.454,1.454,0,0,1-.554-.1,1.19,1.19,0,0,1-.425-.291,1.3,1.3,0,0,1-.273-.462,1.826,1.826,0,0,1-.1-.612,1.766,1.766,0,0,1,.095-.6ZM8.713,7.477h.546v.485h.01A.807.807,0,0,1,9.4,7.746a.817.817,0,0,1,.186-.162.851.851,0,0,1,.232-.1.988.988,0,0,1,.266-.035.868.868,0,0,1,.507.143A.769.769,0,0,1,10.886,8H10.9a.859.859,0,0,1,.145-.232.927.927,0,0,1,.206-.175.956.956,0,0,1,.255-.111,1.087,1.087,0,0,1,.291-.038,1.042,1.042,0,0,1,.384.067.849.849,0,0,1,.3.19.827.827,0,0,1,.189.3,1.1,1.1,0,0,1,.066.389v1.952h-.57V8.526a.613.613,0,0,0-.145-.437.54.54,0,0,0-.414-.155.618.618,0,0,0-.242.046.551.551,0,0,0-.189.13.582.582,0,0,0-.124.2A.692.692,0,0,0,11,8.563v1.778H10.44V8.479a.623.623,0,0,0-.039-.224.481.481,0,0,0-.109-.172.475.475,0,0,0-.173-.109.646.646,0,0,0-.229-.039.605.605,0,0,0-.244.049.576.576,0,0,0-.192.136.617.617,0,0,0-.125.206.766.766,0,0,0-.076.258V10.34h-.54V7.477Zm1.239,13.71c-2.5,0-4.075-1.74-4.075-4.518s1.571-4.524,4.075-4.524,4.069,1.746,4.069,4.524-1.565,4.518-4.069,4.518Zm4.637-10.853a1.14,1.14,0,0,1-.284.035,1.2,1.2,0,0,1-.392-.061.9.9,0,0,1-.306-.172.769.769,0,0,1-.2-.268.833.833,0,0,1-.071-.35.7.7,0,0,1,.281-.589,1.5,1.5,0,0,1,.814-.247l.773-.045V8.417a.46.46,0,0,0-.157-.377.684.684,0,0,0-.445-.129.792.792,0,0,0-.217.029.6.6,0,0,0-.177.083.476.476,0,0,0-.126.13.463.463,0,0,0-.069.168h-.536a.761.761,0,0,1,.094-.351.9.9,0,0,1,.24-.28,1.134,1.134,0,0,1,.357-.185,1.467,1.467,0,0,1,.449-.066,1.573,1.573,0,0,1,.473.066,1.077,1.077,0,0,1,.363.189.839.839,0,0,1,.232.3.9.9,0,0,1,.082.386V10.34h-.545V9.863H15.21a.86.86,0,0,1-.154.21.988.988,0,0,1-.211.16,1.06,1.06,0,0,1-.256.1Zm3.6,10.853c-1.91,0-3.208-1-3.3-2.571h1.243c.1.9.964,1.492,2.153,1.492,1.14,0,1.959-.595,1.959-1.407,0-.7-.5-1.128-1.649-1.419L17.477,17c-1.613-.4-2.347-1.134-2.347-2.341,0-1.486,1.3-2.517,3.147-2.517,1.807,0,3.068,1.037,3.117,2.529H20.164a1.69,1.69,0,0,0-1.911-1.45c-1.086,0-1.837.558-1.837,1.365,0,.636.473,1.013,1.625,1.3l.946.236c1.8.437,2.541,1.146,2.541,2.42,0,1.625-1.286,2.638-3.336,2.638ZM9.952,13.26c-1.716,0-2.789,1.316-2.789,3.408s1.073,3.4,2.789,3.4,2.789-1.316,2.789-3.4S11.662,13.26,9.952,13.26Z" transform="translate(-0.25 -0.25)" fill="#fff"/>
</svg>
