<svg xmlns="http://www.w3.org/2000/svg" xmlns:xlink="http://www.w3.org/1999/xlink" width="76" height="76" viewBox="0 0 76 76">
  <defs>
    <linearGradient id="linear-gradient" x1="0.5" x2="-0.027" y2="0.182" gradientUnits="objectBoundingBox">
      <stop offset="0" stop-color="#00d1ef"/>
      <stop offset="0" stop-color="#3befe2"/>
      <stop offset="1" stop-color="#2599fa"/>
    </linearGradient>
  </defs>
  <g id="Group_29917" data-name="Group 29917" transform="translate(-139 -1395)">
    <rect id="Rectangle_8947" data-name="Rectangle 8947" width="76" height="76" rx="10" transform="translate(139 1395)" fill="#252535"/>
    <g id="Group_3743" data-name="Group 3743" transform="translate(-993 -12496)">
      <rect id="Rectangle_8833" data-name="Rectangle 8833" width="52" height="52" transform="translate(1144 13903)" fill="none"/>
      <g id="Group_3742" data-name="Group 3742" transform="translate(1148.124 13906.662)">
        <path id="Path_2019" data-name="Path 2019" d="M1195.018,13960.788h-3.251v-6.169a2.369,2.369,0,0,0-2.368-2.367h-18.169a2.369,2.369,0,0,0-2.367,2.367v6.169h-3.251v-6.169a5.625,5.625,0,0,1,5.618-5.619H1189.4a5.626,5.626,0,0,1,5.618,5.619Z" transform="translate(-1158.028 -13927.739)" stroke="rgba(0,0,0,0)" stroke-width="1" fill="url(#linear-gradient)"/>
        <rect id="Rectangle_8834" data-name="Rectangle 8834" width="3.251" height="9.882" transform="translate(20.663 12.462)" stroke="rgba(0,0,0,0)" stroke-width="1" fill="url(#linear-gradient)"/>
        <path id="Path_2020" data-name="Path 2020" d="M1214.516,13981.844h-10.836a3.8,3.8,0,0,1-3.792-3.792v-6.5a3.8,3.8,0,0,1,3.792-3.792h10.836a3.8,3.8,0,0,1,3.792,3.792v6.5A3.8,3.8,0,0,1,1214.516,13981.844Zm-10.836-10.836a.542.542,0,0,0-.542.542v6.5a.543.543,0,0,0,.542.542h10.836a.543.543,0,0,0,.542-.542v-6.5a.542.542,0,0,0-.542-.542Z" transform="translate(-1173.732 -13936.335)" stroke="rgba(0,0,0,0)" stroke-width="1" fill="url(#linear-gradient)"/>
        <path id="Path_2021" data-name="Path 2021" d="M1166.241,13981.844H1155.4a3.8,3.8,0,0,1-3.792-3.792v-6.5a3.8,3.8,0,0,1,3.792-3.792h10.836a3.8,3.8,0,0,1,3.792,3.792v6.5A3.8,3.8,0,0,1,1166.241,13981.844Zm-10.836-10.836a.542.542,0,0,0-.542.542v6.5a.543.543,0,0,0,.542.542h10.836a.543.543,0,0,0,.542-.542v-6.5a.542.542,0,0,0-.542-.542Z" transform="translate(-1151.612 -13936.335)" stroke="rgba(0,0,0,0)" stroke-width="1" fill="url(#linear-gradient)"/>
        <path id="Path_2022" data-name="Path 2022" d="M1190.378,13923.846h-10.836a3.8,3.8,0,0,1-3.792-3.793v-6.5a3.8,3.8,0,0,1,3.792-3.793h10.836a3.8,3.8,0,0,1,3.792,3.793v6.5A3.8,3.8,0,0,1,1190.378,13923.846Zm-10.836-10.836a.542.542,0,0,0-.542.541v6.5a.543.543,0,0,0,.542.542h10.836a.542.542,0,0,0,.542-.542v-6.5a.541.541,0,0,0-.542-.541Z" transform="translate(-1162.672 -13909.758)" stroke="rgba(0,0,0,0)" stroke-width="1" fill="url(#linear-gradient)"/>
      </g>
    </g>
  </g>
</svg>
