<svg xmlns="http://www.w3.org/2000/svg" width="26.001" height="21.129" viewBox="0 0 26.001 21.129">
  <path id="icons8-twitter" d="M28,6.937a10.648,10.648,0,0,1-3.064.84,5.343,5.343,0,0,0,2.345-2.951,10.7,10.7,0,0,1-3.388,1.3A5.336,5.336,0,0,0,14.666,9.77a5.394,5.394,0,0,0,.138,1.215A15.143,15.143,0,0,1,3.809,5.411,5.344,5.344,0,0,0,5.46,12.533a5.323,5.323,0,0,1-2.416-.667v.067a5.335,5.335,0,0,0,4.279,5.23,5.336,5.336,0,0,1-1.406.187,5.431,5.431,0,0,1-1-.095A5.341,5.341,0,0,0,9.9,20.96,10.764,10.764,0,0,1,2,23.169a15.1,15.1,0,0,0,8.177,2.4A15.072,15.072,0,0,0,25.352,10.388q0-.346-.015-.69A10.855,10.855,0,0,0,28,6.937Z" transform="translate(-1.999 -4.436)" fill="#00d1ef"/>
</svg>
