<svg xmlns="http://www.w3.org/2000/svg" width="10.455" height="16.99" viewBox="0 0 10.455 16.99">
  <g id="Vector_Smart_Object_copy" data-name="Vector Smart Object copy" transform="translate(0 16.99) rotate(-90)">
    <path id="Color_Overlay" data-name="Color Overlay" d="M7.645,10.089.339,2.215A1.332,1.332,0,0,1,0,1.517V1.084a1.331,1.331,0,0,1,.339-.7A1.16,1.16,0,0,1,1.16,0h.058a1.162,1.162,0,0,1,.821.384L8.495,7.342,14.951.384A1.159,1.159,0,0,1,15.772,0h.058a1.16,1.16,0,0,1,.82.384,1.343,1.343,0,0,1,.339.7v.433a1.344,1.344,0,0,1-.339.7L9.344,10.089a1.168,1.168,0,0,1-1.7,0Z" transform="translate(0 0)" fill="#30c2ef"/>
  </g>
</svg>
